<svg id="Layer_1" data-name="Layer 1" xmlns="http://www.w3.org/2000/svg" viewBox="0 0 542.48 687.62"><defs><style>.cls-1{fill:#99b83c;stroke:#f2f2f2}.cls-1,.cls-3,.cls-4{stroke-miterlimit:10}.cls-2{fill:#fff}.cls-3,.cls-4{fill:#ff671b;stroke:#ff671b;stroke-width:.25px}.cls-4{fill:#0093c9;stroke:#0093c9}.cls-5{fill:#fc3}.cls-6{fill:#58595b}</style></defs><title>Feb-Logo-without-Name</title><path class="cls-1" d="M396 549.05c0-9.19 18.11-12 20.41-14.45s-8.71-8.67-10.2-13.4 3.74-8.8 4.47-9.46 18.68-7.35 20.86-9.72-5.66-7.5-11-16.29c-.92-5.31-1.25-6.46 4.81-7.88s22.07-4.61 23.85-8.41c1.08-3.84-5-10.64-10.32-15.24-11.52-9.92 21.82-15.1 26.37-15s16.54-4.19 12.15-3.41-11.92-19.7-11.92-19.7-1.87-6.65 2.52-10 11-1.84 11-1.84a80.2 80.2 0 0 0 8.94 2.89c3.25.69 28.43-.79 28.43-.79s-6.46-19.17-6.88-25.22-.84-6.73 3.9-10.51c5.13-4.09 14.2 4.94 16 4.73l29.12 16.81 21.55 6.83 19.95 1.58s7.37 1.15 10.55-1.31 1.56-10.32 1.6-13.13-4.81-2.1-4.81-2.1a84 84 0 0 0-16.34-.53c-8.46 1.74 3.5-8.41 3.5-8.41l13.53-12.35 18.57-8.93c6.37-3.08 19.67-3.72 15.36-3.41a17.46 17.46 0 0 1 7.11 0c3.17.87 4.54 2.91 4.36 4.73l-1.83 18.12-4.59 17.6a33.54 33.54 0 0 0-3 10.24c-.34 4.81 8.22 9 12.15 12.61l19.26 17.86s8.06 7.1 9.63 8.93 4.81 15 4.81 15 1 6.76 1.83 10.77l1.15 5.83 3.21 8.61 10.55 17.6 23.16 30.73 17.65 20s8.83 10.34 10.32 13.66 3.47 19.39 3 23.64-3.43 13.63-3.9 16.29-2.17 10-2.52 14.45a63.19 63.19 0 0 1-17.43 21.8l-13.07 2.89-18.57-1.84-16-6.3L678.7 625l-8-10.24-5.27-8.14s-21.44-.08-25.22.79c-4.94-.62-20.41-6-20.41-6l-14.44-8.93-10.09-10-8.27-11.89s-11.25 15.21-12.84 18.12-4.5 5.84-5.27 9.72-2.72 17.35-2.75 19.18 5 26.27 5 26.27 3.46 20.07 3.44 21.8.5 14.63-.23 17.07l-3.9 13.13-6.42 13.66c-1.64 3-1.26 4.73-4.13 4.73s-27.93-2.2-32.1-3.68c1 .13-25.22-7.88-25.22-7.88L476 689.59l-21.09-14.71-23.39-23.12-17-27.84-8.48-20-6.42-21.28L396 558.9z" transform="translate(-218.88 -76.88)"/><path class="cls-1" d="M660.87 393.34C659 391.54 676.7 406 676.7 406l10.3 9.72 8.09 8s42.21-85.22 43.37-87.19.28-10 .28-10-4-6.89-6.9-6.48-10.25 6.87-10.25 6.87l-18.13 19.63-44.56 45z" transform="translate(-218.88 -76.88)"/><ellipse class="cls-2" cx="453.4" cy="407.3" rx="13.61" ry="13.28"/><path class="cls-3" d="M413.41 450.26c2.82-9.38-36.32-198.58-45.07-325-8.68-125.53-39.08 27-42 82.93s6 104.25 22.17 146.7 62.09 104.76 64.9 95.37z" transform="translate(-218.88 -76.88)"/><path class="cls-4" d="M368.93 578.09c-1.59-6.45-138.19-62-147.61-56.52s12.08 46.74 23.78 49 125.42 13.97 123.83 7.52zm29 75.3c-1-3.62-105.29 27.14-106.79 37.7s50.23 10.45 62.23 3.68S399 657 397.93 653.39z" transform="translate(-218.88 -76.88)"/><path class="cls-5" d="M498.72 718.1c-6.43-5.54-25.23 41.21-23.59 45.73s26.45-15.32 27.64-19.59c1.13-4.07 2.38-20.6-4.05-26.14z" transform="translate(-218.88 -76.88)"/><path class="cls-3" d="M373.84 531.4c-.73-10.17-136.37-163.62-144.8-154.52s-16.34 85.52 17.43 95.89c0 0 128.1 68.8 127.37 58.63z" transform="translate(-218.88 -76.88)"/><path class="cls-4" d="M382.88 619.75c-2.9-4.06-129.11-1.23-135.52 5.53s8.8 31.78 31.69 27.28 106.74-28.75 103.83-32.81z" transform="translate(-218.88 -76.88)"/><path class="cls-5" d="M431.94 686.14c-.77-3.66-78.55 27.42-79.67 38.1s37.48 10.56 46.42 3.72 34.02-38.16 33.25-41.82zm31.48 22.96c-1.09-2.75-63.29 34.73-63 43.32s33 2 39.77-4.86 24.32-35.71 23.23-38.46z" transform="translate(-218.88 -76.88)"/><path class="cls-3" d="M388.1 496.94c8.06-5.91-128.78-265.54-140.42-255.25s-35.24 49.94 0 93.5S380 502.86 388.1 496.94z" transform="translate(-218.88 -76.88)"/><path class="cls-6" d="M527.84 753.77v-16.91h5.4q4.65 0 4.65 8.52a14 14 0 0 1-1.07 5.89 4.55 4.55 0 0 1-1.46 1.84 3.55 3.55 0 0 1-2.12.66zm2.16-2.47h3.16a1.84 1.84 0 0 0 1.53-.79q1.15-1.46 1.15-5.15 0-4.39-1.24-5.54a2.06 2.06 0 0 0-1.44-.51H530zm11.8-1.3a14.11 14.11 0 0 1-.28-2q-.09-1.14-.09-2.69a27.32 27.32 0 0 1 .14-2.85 15.41 15.41 0 0 1 .37-2.22 6 6 0 0 1 .62-1.56 4.32 4.32 0 0 1 .79-1 2.91 2.91 0 0 1 1-.58 5.87 5.87 0 0 1 2-.35 13.75 13.75 0 0 1 1.63.07 5.54 5.54 0 0 1 1.13.28 2.8 2.8 0 0 1 1 .58 4.3 4.3 0 0 1 .77 1 5.86 5.86 0 0 1 .59 1.55 22.55 22.55 0 0 1 .49 5.2q0 4.64-1 6.44a3.49 3.49 0 0 1-1.75 1.62 8.33 8.33 0 0 1-3.65.32 3.82 3.82 0 0 1-1.79-.48 5.14 5.14 0 0 1-.89-.8 3.55 3.55 0 0 1-.62-1.06 10.68 10.68 0 0 1-.46-1.47zm1.89-7.74q-.06.61-.11 1.4t0 1.84v1.87q0 .82.15 1.47a4.55 4.55 0 0 0 .28 1.07 3.14 3.14 0 0 0 .41.72 1.54 1.54 0 0 0 .57.45 4.27 4.27 0 0 0 1.66.28 4.47 4.47 0 0 0 1.57-.22 2 2 0 0 0 1-.87 4.65 4.65 0 0 0 .54-1.79 21.25 21.25 0 0 0 .15-2.64v-2.34a12 12 0 0 0-.15-1.48q-.11-.63-.23-1.1a2.13 2.13 0 0 0-.35-.76 2.81 2.81 0 0 0-.44-.47 1.44 1.44 0 0 0-.55-.27 4.6 4.6 0 0 0-1.17-.14H546a3.57 3.57 0 0 0-.58.08 1.67 1.67 0 0 0-.52.18 2.72 2.72 0 0 0-.43.33 1.45 1.45 0 0 0-.36.54q-.13.32-.26.77a5.75 5.75 0 0 0-.16 1.07zm12.37 11.51v-16.91h2.15l5.93 11.94v-11.94h2.11v16.91h-2.11l-5.95-11.87v11.87zm13.94 0l4.64-16.91H577l4.45 16.91h-2.31l-1-4.09h-4.74l-1 4.09zm4-6.54h3.56l-1.75-6.72zm8.88-7.85v-2.52h9.62v2.52h-3.8v14.39h-2.11v-14.39zm13.45 14.39v-16.91h2.11v16.91zm6.57-3.77a14.11 14.11 0 0 1-.28-2q-.09-1.14-.09-2.69a27.32 27.32 0 0 1 .14-2.85 15.41 15.41 0 0 1 .37-2.22 6 6 0 0 1 .62-1.56 4.32 4.32 0 0 1 .79-1 2.91 2.91 0 0 1 1-.58 5.87 5.87 0 0 1 2-.35 13.75 13.75 0 0 1 1.63.07 5.54 5.54 0 0 1 1.13.28 2.8 2.8 0 0 1 1 .58 4.3 4.3 0 0 1 .77 1 5.86 5.86 0 0 1 .59 1.55 22.55 22.55 0 0 1 .49 5.2q0 4.64-1 6.44a3.49 3.49 0 0 1-1.75 1.62 8.33 8.33 0 0 1-3.65.32 3.82 3.82 0 0 1-1.79-.48 5.14 5.14 0 0 1-.89-.8 3.55 3.55 0 0 1-.62-1.06 10.68 10.68 0 0 1-.46-1.47zm1.89-7.74q-.06.61-.11 1.4t0 1.84v1.87q0 .82.15 1.47a4.55 4.55 0 0 0 .28 1.07 3.14 3.14 0 0 0 .41.72 1.54 1.54 0 0 0 .57.45 4.27 4.27 0 0 0 1.66.28 4.47 4.47 0 0 0 1.57-.22 2 2 0 0 0 1-.87 4.65 4.65 0 0 0 .54-1.79 21.25 21.25 0 0 0 .15-2.64v-2.34a12 12 0 0 0-.15-1.48q-.11-.63-.23-1.1a2.13 2.13 0 0 0-.35-.76 2.81 2.81 0 0 0-.44-.47 1.44 1.44 0 0 0-.55-.27 4.6 4.6 0 0 0-1.17-.14h-.9a3.57 3.57 0 0 0-.58.08 1.67 1.67 0 0 0-.52.18 2.72 2.72 0 0 0-.43.33 1.45 1.45 0 0 0-.36.54q-.13.32-.26.77a5.75 5.75 0 0 0-.28 1.07zm12.37 11.51v-16.91h2.15l5.93 11.94v-11.94h2.11v16.91h-2.11l-5.95-11.87v11.87zm26.18.16h-3.28a6.08 6.08 0 0 1-.64-.08l-.55-.12a6.29 6.29 0 0 1-1.15-.37v-1.89h4.91a2.55 2.55 0 0 0 1.45-.32q.45-.32.46-1.46v-1a2.48 2.48 0 0 0-.25-1.19 1.32 1.32 0 0 0-.61-.61 2.62 2.62 0 0 0-.95-.19l-3.91-.18v-2.12l3.91-.23a2.14 2.14 0 0 0 1.4-.51 1.9 1.9 0 0 0 .44-1.39v-1.11a1.6 1.6 0 0 0-1.84-1.78h-5.15v-1.87a9.62 9.62 0 0 1 3.93-.67h1.93a2.91 2.91 0 0 1 2.35 1.11 4.47 4.47 0 0 1 .86 2.86v1.34q0 2.59-1.31 3.23 1.31.81 1.31 3.4v1.13a4.66 4.66 0 0 1-.85 3 3 3 0 0 1-2.46 1.02zm7.98-.69v-1.8q0-.58.44-.58h1.35q.45 0 .45.58v1.8q0 .53-.45.53h-1.35a.38.38 0 0 1-.32-.15.6.6 0 0 1-.12-.38zm6.78-3.45v-8.87a4.54 4.54 0 0 1 .89-3 3 3 0 0 1 2.38-1.05h3a2.68 2.68 0 0 1 2.4 1.11 5 5 0 0 1 .75 2.87v9a4.57 4.57 0 0 1-.83 3 2.85 2.85 0 0 1-2.32 1h-3a3 3 0 0 1-2.39-1 4.37 4.37 0 0 1-.88-3.06zm2.11-.35a1.82 1.82 0 0 0 .45 1.4 1.55 1.55 0 0 0 1.08.4h2.2q1.45 0 1.45-1.78v-8.32q0-1.78-1.4-1.78h-2.31a1.24 1.24 0 0 0-1.13.53 2.24 2.24 0 0 0-.35 1.25z" transform="translate(-218.88 -76.88)"/></svg>